<?xml version="1.0" encoding="UTF-8" standalone="no"?><!DOCTYPE svg PUBLIC "-//W3C//DTD SVG 1.1//EN" "http://www.w3.org/Graphics/SVG/1.1/DTD/svg11.dtd"><svg width="100%" height="100%" viewBox="0 0 855 828" version="1.1" xmlns="http://www.w3.org/2000/svg" xmlns:xlink="http://www.w3.org/1999/xlink" xml:space="preserve" xmlns:serif="http://www.serif.com/" style="fill-rule:evenodd;clip-rule:evenodd;stroke-linecap:round;stroke-linejoin:round;stroke-miterlimit:1.5;"><g><path d="M250.823,241.558c0,-274.003 372.099,-274.003 372.099,0" style="fill:none;stroke:#fff;stroke-width:72.11px;"/><path d="M854.26,310.441c0,-37.037 -26.457,-67.106 -59.044,-67.106l-29.774,0c-6.407,254.726 0,584.638 0,584.638l-54.132,0c0,0 5.491,-338.969 0,-584.638l-540.673,0c-9.325,273.278 0,506.704 0,584.638l-64.13,0c0,0 5.823,-331.961 0,-584.638l-47.463,0c-32.587,0 -59.044,30.069 -59.044,67.106l0,450.426c0,37.037 26.457,67.106 59.044,67.106l736.172,0c32.587,0 59.044,-30.069 59.044,-67.106l0,-450.426Z" style="fill:#fff;"/></g></svg>