<?xml version="1.0" encoding="UTF-8" standalone="no"?><!DOCTYPE svg PUBLIC "-//W3C//DTD SVG 1.1//EN" "http://www.w3.org/Graphics/SVG/1.1/DTD/svg11.dtd"><svg width="100%" height="100%" viewBox="0 0 920 852" version="1.1" xmlns="http://www.w3.org/2000/svg" xmlns:xlink="http://www.w3.org/1999/xlink" xml:space="preserve" xmlns:serif="http://www.serif.com/" style="fill-rule:evenodd;clip-rule:evenodd;stroke-linejoin:round;stroke-miterlimit:2;"><path d="M0,36.605c0,-20.216 16.389,-36.605 36.605,-36.605c147.636,0 698.443,0 846.19,0c20.251,0 36.667,16.416 36.667,36.667c0,32.203 0,73.956 0,73.956l-774.69,0c-5.746,0 -11.257,2.282 -15.32,6.346c-4.064,4.063 -6.346,9.574 -6.346,15.32c0,11.313 0,25.116 0,36.428c0,5.747 2.282,11.258 6.346,15.321c4.063,4.063 9.574,6.346 15.32,6.346l659.545,0l0,250.831c-220.959,5.803 -543.49,1.633 -629.903,0.345c-5.795,-0.092 -11.385,2.146 -15.516,6.211c-4.131,4.066 -6.457,9.62 -6.457,15.416c0,11.746 0,26.166 0,37.918c0,5.808 2.331,11.373 6.472,15.446c4.14,4.073 9.742,6.313 15.549,6.218c86.505,-1.33 409.09,-5.629 629.855,0.356l0,-159.013l-604.427,0c-5.747,0 -11.258,-2.283 -15.321,-6.346c-4.063,-4.063 -6.346,-9.574 -6.346,-15.321c0,-13.647 0,-31.201 0,-44.848c0,-5.747 2.283,-11.258 6.346,-15.321c4.063,-4.063 9.574,-6.346 15.321,-6.346c110.321,0 604.427,0 604.427,0l0,-165.307l115.145,0l0,741.01l-260.819,-212.52l38.904,61.788l-660.88,0c-20.251,0 -36.667,-16.416 -36.667,-36.666c0,-120.994 0,-506.726 0,-627.63Z" style="fill:#fff;"/></svg>