<?xml version="1.0" encoding="UTF-8" standalone="no"?><!DOCTYPE svg PUBLIC "-//W3C//DTD SVG 1.1//EN" "http://www.w3.org/Graphics/SVG/1.1/DTD/svg11.dtd"><svg width="100%" height="100%" viewBox="0 0 933 865" version="1.1" xmlns="http://www.w3.org/2000/svg" xmlns:xlink="http://www.w3.org/1999/xlink" xml:space="preserve" xmlns:serif="http://www.serif.com/" style="fill-rule:evenodd;clip-rule:evenodd;stroke-linejoin:round;stroke-miterlimit:2;"><path d="M462.294,0l-462.294,478.626l129.802,0l338.352,-322.603l0,21.988l-322.602,317.304l0,369.053l221.25,0l0,-249.986c0,-65.759 53.308,-119.067 119.066,-119.067c0.004,0 0.008,0 0.011,0c27.81,0 54.482,11.048 74.146,30.712c19.665,19.665 30.713,46.336 30.713,74.146c0,109.104 0,264.195 0,264.195l205.012,0l0,-369.053l-327.596,-317.304l0,-21.988l342.855,322.603l121.663,0l-470.378,-478.626Z" style="fill:#fff;"/></svg>