<?xml version="1.0" encoding="UTF-8" standalone="no"?><!DOCTYPE svg PUBLIC "-//W3C//DTD SVG 1.1//EN" "http://www.w3.org/Graphics/SVG/1.1/DTD/svg11.dtd"><svg width="100%" height="100%" viewBox="0 0 1841 1580" version="1.1" xmlns="http://www.w3.org/2000/svg" xmlns:xlink="http://www.w3.org/1999/xlink" xml:space="preserve" xmlns:serif="http://www.serif.com/" style="fill-rule:evenodd;clip-rule:evenodd;stroke-linecap:round;stroke-miterlimit:1.5;"><g><path d="M61.729,1506.06l0,-1444.33c875.154,0 885.334,809.98 161.283,809.98l522.677,634.347" style="fill:none;stroke:#f0f0fc;stroke-width:80px;"/><path d="M1778.15,478.853c16.089,-262.207 -212.055,-402.641 -412.227,-402.641c-221.335,0 -299.577,182.821 -327.235,355.695c-21.81,138.111 49.463,274.195 175.411,334.92c111.019,53.612 250.948,121.077 363.655,175.418c78.374,37.768 136.776,107.35 160.382,191.086c23.606,83.736 10.147,173.576 -36.961,246.719c-73.433,113.576 -193.262,131.647 -335.252,138.09c0,0 -342.831,-16.924 -342.358,-317.038" style="fill:none;stroke:#f0f0fc;stroke-width:80px;"/></g></svg>