<svg width="63" height="45" viewBox="0 0 63 45" fill="none" xmlns="http://www.w3.org/2000/svg">
<path d="M53.7188 7.65C55.8002 4.31976 53.4059 0 49.4788 0H48.0902C46.1963 0 44.465 1.07001 43.618 2.76394L36.5279 16.9443C36.1807 17.6385 36 18.4041 36 19.1803V40C36 42.7614 38.2386 45 41 45H58C60.7614 45 63 42.7614 63 40V27.3104C63 23.3307 58.5646 20.9569 55.2533 23.1645C50.789 26.1407 45.4203 20.9275 48.2639 16.3777L53.7188 7.65ZM17.7188 7.65C19.8002 4.31976 17.4059 0 13.4788 0H12.0902C10.1963 0 8.465 1.07001 7.61804 2.76394L0.52787 16.9443C0.180733 17.6385 7.62939e-06 18.4041 7.62939e-06 19.1803V40C7.62939e-06 42.7614 2.23858 45 5.00001 45H22C24.7614 45 27 42.7614 27 40V27.3104C27 23.3307 22.5646 20.9569 19.2533 23.1645C14.789 26.1407 9.4203 20.9275 12.2639 16.3777L17.7188 7.65Z" fill="#DDDDDD"/>
</svg>
